<?xml version="1.0" encoding="utf-8"?>
<!-- Generator: Adobe Illustrator 24.2.3, SVG Export Plug-In . SVG Version: 6.00 Build 0)  -->
<svg version="1.1" id="Capa_1" xmlns="http://www.w3.org/2000/svg" xmlns:xlink="http://www.w3.org/1999/xlink" x="0px" y="0px"
	 viewBox="0 0 800 800" enable-background="new 0 0 800 800" xml:space="preserve">
<rect fill="#FF6E40" width="800" height="800"/>
<circle fill="none" cx="400.654" cy="397.696" r="370.922"/>
<path opacity="0.6" fill="#DD2C00" d="M800,435.81V800H399.28c-10.6-10.57-21.61-21.55-33.07-32.96l-0.01-0.01
	c-57.33-57.14-125.55-125.12-206.75-206.05c-0.08-0.08-0.17-0.17-0.25-0.25c-0.22-0.2-0.44-0.41-0.66-0.62
	c-0.43-0.43-0.86-0.87-1.29-1.33c-0.85-0.93-1.68-1.94-2.49-3.02c-0.2-0.27-0.4-0.55-0.6-0.83c-0.22-0.3-0.43-0.61-0.65-0.93
	c-0.37-0.57-0.74-1.15-1.11-1.75c-0.96-1.57-1.88-3.28-2.76-5.13c-0.26-0.53-0.51-1.07-0.76-1.62c-0.06-0.14-0.12-0.28-0.18-0.41
	c-0.44-1.01-0.87-2.05-1.29-3.13c-0.23-0.58-0.45-1.16-0.66-1.75c-0.03-0.06-0.05-0.13-0.08-0.19c-0.2-0.59-0.41-1.19-0.62-1.8
	c-0.13-0.35-0.25-0.72-0.36-1.08c-0.11-0.34-0.22-0.68-0.33-1.02c-0.57-1.79-1.11-3.67-1.63-5.64c-0.08-0.29-0.16-0.59-0.23-0.89
	c-0.57-2.2-1.1-4.51-1.6-6.94c-0.11-0.52-0.22-1.05-0.32-1.59c-0.03-0.12-0.05-0.24-0.07-0.36c-0.13-0.64-0.25-1.29-0.37-1.94
	c-0.21-1.13-0.41-2.27-0.6-3.44c-0.06-0.33-0.11-0.65-0.16-0.99c-0.03-0.18-0.06-0.36-0.09-0.54c-0.07-0.45-0.14-0.91-0.21-1.37
	c-0.06-0.41-0.13-0.83-0.19-1.24c-0.05-0.38-0.11-0.76-0.16-1.14c-0.02-0.15-0.04-0.31-0.07-0.46c-0.07-0.53-0.14-1.07-0.21-1.6
	c-0.05-0.38-0.1-0.76-0.15-1.15c-0.06-0.42-0.11-0.85-0.16-1.28c-0.19-1.53-0.37-3.09-0.54-4.69c-0.17-1.6-0.33-3.23-0.48-4.89
	c-9.59-106.17,32.63-214.46,52.69-248.13c20.07-33.67,93.72-55.81,117.68-31.54c23.95,24.27,91.92,21.84,91.92,21.84
	s67.97,2.42,91.93-21.84c7.26-7.36,19.1-10.45,32.63-10.25c0.42,0.01,0.84,0.02,1.27,0.03c0.42,0.01,0.85,0.03,1.27,0.05
	c0.24,0.01,0.48,0.02,0.71,0.03c0.44,0.02,0.88,0.05,1.32,0.08c0.64,0.04,1.29,0.09,1.93,0.15c0.85,0.07,1.7,0.16,2.55,0.25
	c2.3,0.26,4.63,0.6,6.97,1.03c0.79,0.14,1.59,0.29,2.38,0.45c0.45,0.09,0.9,0.18,1.36,0.28c0.45,0.09,0.9,0.19,1.35,0.29
	s0.9,0.21,1.35,0.31c2.71,0.64,5.43,1.37,8.13,2.21c0.9,0.27,1.8,0.56,2.7,0.85c0.52,0.17,1.05,0.35,1.57,0.53
	c1.27,0.44,2.52,0.89,3.78,1.36c0.81,0.3,1.63,0.62,2.43,0.95c0.73,0.29,1.46,0.59,2.18,0.89c0.77,0.32,1.53,0.65,2.28,0.98
	c0.76,0.34,1.5,0.67,2.25,1.02c0.85,0.4,1.7,0.81,2.54,1.22c0.8,0.39,1.6,0.8,2.39,1.2c0.04,0.02,0.07,0.04,0.11,0.06
	c0.62,0.32,1.24,0.65,1.85,0.98c1.22,0.67,2.42,1.35,3.6,2.04h0.01c0.62,0.36,1.23,0.73,1.84,1.11c0.55,0.35,1.1,0.69,1.64,1.04
	c0.57,0.36,1.14,0.73,1.7,1.1c1.11,0.75,2.21,1.51,3.28,2.29c2.14,1.56,4.17,3.17,6.09,4.84c0.95,0.83,1.88,1.68,2.77,2.54
	c0.3,0.29,0.59,0.58,0.88,0.87c0.29,0.29,0.58,0.58,0.86,0.87c0.09,0.08,0.17,0.16,0.25,0.25c63.85,63.9,119.83,119.93,168.9,169.05
	C781.25,417.04,790.76,426.56,800,435.81z"/>
<path fill="#DD2C00" d="M610.01,247.84c-1.99-3.34-4.51-6.56-7.45-9.64c-0.08-0.09-0.16-0.17-0.25-0.25
	c-0.28-0.29-0.57-0.58-0.86-0.87c-0.29-0.29-0.58-0.58-0.88-0.87c-0.88-0.87-1.81-1.71-2.77-2.54c-1.91-1.68-3.95-3.29-6.09-4.84
	c-1.07-0.78-2.16-1.54-3.28-2.29c-0.56-0.37-1.13-0.74-1.7-1.1c-0.54-0.35-1.09-0.69-1.64-1.04c-0.61-0.38-1.22-0.75-1.84-1.11
	h-0.01c-1.18-0.71-2.38-1.38-3.6-2.04c-0.61-0.33-1.23-0.66-1.85-0.98c-0.04-0.02-0.07-0.04-0.11-0.06c-0.79-0.4-1.59-0.81-2.39-1.2
	c-0.84-0.41-1.69-0.82-2.54-1.22c-0.75-0.35-1.49-0.68-2.25-1.02c-0.75-0.33-1.51-0.66-2.28-0.98c-0.72-0.3-1.45-0.6-2.18-0.89
	c-0.8-0.33-1.62-0.65-2.43-0.95c-1.25-0.48-2.51-0.93-3.78-1.36c-0.52-0.18-1.05-0.36-1.57-0.53c-0.9-0.29-1.8-0.58-2.7-0.85
	c-2.7-0.84-5.42-1.57-8.13-2.21c-0.45-0.1-0.9-0.21-1.35-0.31s-0.9-0.2-1.35-0.29c-0.46-0.1-0.91-0.19-1.36-0.28
	c-0.79-0.16-1.59-0.31-2.38-0.45c-2.34-0.43-4.67-0.77-6.97-1.03c-0.85-0.09-1.7-0.18-2.55-0.25c-0.64-0.06-1.29-0.11-1.93-0.15
	c-0.44-0.03-0.88-0.06-1.32-0.08c-0.23-0.01-0.47-0.02-0.71-0.03c-0.42-0.02-0.85-0.04-1.27-0.05c-0.43-0.01-0.85-0.02-1.27-0.03
	c-13.53-0.2-25.37,2.89-32.63,10.25c-23.96,24.26-91.93,21.84-91.93,21.84s-67.97,2.43-91.92-21.84
	c-23.96-24.27-97.61-2.13-117.68,31.54c-20.06,33.67-62.28,141.96-52.69,248.13c0.15,1.66,0.31,3.29,0.48,4.89
	c0.17,1.6,0.35,3.16,0.54,4.69c0.05,0.43,0.1,0.86,0.16,1.28c0.05,0.39,0.1,0.77,0.15,1.15c0.07,0.53,0.14,1.07,0.21,1.6
	c0.03,0.15,0.05,0.31,0.07,0.46c0.05,0.38,0.11,0.76,0.16,1.14c0.06,0.41,0.13,0.83,0.19,1.24c0.07,0.46,0.14,0.92,0.21,1.37
	c0.03,0.18,0.06,0.36,0.09,0.54c0.05,0.34,0.1,0.66,0.16,0.99c0.19,1.17,0.39,2.31,0.6,3.44c0.12,0.65,0.24,1.3,0.37,1.94
	c0.02,0.12,0.04,0.24,0.07,0.36c0.1,0.54,0.21,1.07,0.32,1.59c0.5,2.43,1.03,4.74,1.6,6.94c0.07,0.3,0.15,0.6,0.23,0.89
	c0.52,1.97,1.06,3.85,1.63,5.64c0.11,0.34,0.22,0.68,0.33,1.02c0.11,0.36,0.23,0.73,0.36,1.08c0.21,0.61,0.42,1.21,0.62,1.8
	c0.03,0.06,0.05,0.13,0.08,0.19c0.21,0.59,0.43,1.17,0.66,1.75c0.41,1.08,0.84,2.12,1.29,3.13c0.06,0.13,0.12,0.27,0.18,0.41
	c0.25,0.55,0.5,1.09,0.76,1.62c0.88,1.85,1.8,3.56,2.76,5.13c0.37,0.6,0.74,1.18,1.11,1.75c0.22,0.32,0.43,0.63,0.65,0.93
	c0.2,0.28,0.4,0.56,0.6,0.83c0.8,1.09,1.63,2.1,2.49,3.02c0.42,0.47,0.85,0.92,1.29,1.33c0.3,0.31,0.6,0.59,0.91,0.87
	c20.36,18.31,50.89-4.07,77.48-26.18c40.12-33.37,53.29-50.77,163.48-50.77s123.36,17.4,163.49,50.77
	c40.12,33.37,89.22,67.34,98.81-38.83C672.29,389.8,630.07,281.51,610.01,247.84z"/>
<circle fill="#FF6E40" cx="298.812" cy="356.998" r="52.858"/>
<circle fill="#DD2C00" cx="298.812" cy="357.203" r="40.825"/>
<circle fill="#FF6E40" cx="464.226" cy="356.998" r="22.47"/>
<circle fill="#FF6E40" cx="505.185" cy="316.378" r="22.47"/>
<circle fill="#FF6E40" cx="546.144" cy="357.203" r="22.47"/>
<circle fill="#FF6E40" cx="505.185" cy="398.027" r="22.47"/>
<circle fill="#DD2C00" cx="464.226" cy="357.203" r="16.728"/>
<circle fill="#DD2C00" cx="505.185" cy="316.378" r="16.728"/>
<circle fill="#DD2C00" cx="546.144" cy="357.203" r="16.728"/>
<circle fill="#DD2C00" cx="505.185" cy="398.027" r="16.728"/>
</svg>
