<?xml version="1.0" encoding="utf-8"?>
<!-- Generator: Adobe Illustrator 24.2.3, SVG Export Plug-In . SVG Version: 6.00 Build 0)  -->
<svg version="1.1" id="Capa_1" xmlns="http://www.w3.org/2000/svg" xmlns:xlink="http://www.w3.org/1999/xlink" x="0px" y="0px"
	 viewBox="0 0 800 800" enable-background="new 0 0 800 800" xml:space="preserve">
<rect fill="#FF6E40" width="800" height="800"/>
<path opacity="0.7" fill="#CC3300" d="M579.329,335.306L579.329,335.306z"/>
<path fill="#CC3300" d="M132.135,471.906L132.135,471.906z"/>
<path opacity="0.6" fill="#CC3300" d="M800,459.58V800H448.8c-10.5-10.27-21.3-20.84-32.41-31.71
	c-62.81-61.47-135.41-132.52-219.35-214.67l-1.95-1.94h-0.01l-1.94-1.94h-0.01l-12.77-12.76l2.39-2.39l-0.74-1.75l-0.95,0.4l-1-2.34
	l-0.96,0.4l-0.99-2.34l-0.96,0.4l-1-2.34l-0.95,0.4l-1-2.34l-0.95,0.4l-1-2.34l-0.96,0.4l-7.06-16.61l2.32-0.99l-35.36-35.36
	l-2.85-2.85l-3.88-3.88l0.35-0.35l0.65-0.66l2.16-2.16l-11.32-11.32l0.07-0.07l112.16-112.15l1.83-1.83h248.06v2.67l202.2,2.38
	c0.02,0.02,0.04,0.03,0.06,0.05l1.35,1.34c0.01,0.01,0.02,0.02,0.03,0.03l88.14,88.04L800,459.58z"/>
<path fill="#DD2C00" d="M249.76,433.46c-25.89,0-46.88,20.99-46.88,46.88c0,25.9,20.99,46.89,46.88,46.89
	c25.9,0,46.89-20.99,46.89-46.89C296.65,454.45,275.66,433.46,249.76,433.46z M249.76,514.33c-18.76,0-33.98-15.22-33.98-33.99
	c0-18.76,15.22-33.98,33.98-33.98c18.77,0,33.99,15.22,33.99,33.98C283.75,499.11,268.53,514.33,249.76,514.33z"/>
<path fill="#DD2C00" d="M249.76,450.67c-16.39,0-29.67,13.28-29.67,29.67c0,16.39,13.28,29.68,29.67,29.68s29.68-13.29,29.68-29.68
	C279.44,463.95,266.15,450.67,249.76,450.67z M249.76,500.24c-10.98,0-19.89-8.91-19.89-19.9c0-10.98,8.91-19.89,19.89-19.89
	c10.99,0,19.9,8.91,19.9,19.89C269.66,491.33,260.75,500.24,249.76,500.24z"/>
<path fill="#DD2C00" d="M650.15,489.37v-18.05h-7.78c-0.55-4.99-1.54-9.84-2.94-14.52l7.14-3.04l-7.07-16.62l-7.15,3.05
	c-2.18-3.87-4.66-7.53-7.42-10.97l5.5-5.51l-12.77-12.77l-5.5,5.51c-3.85-3.08-7.97-5.83-12.34-8.18l2.9-7.21l-16.75-6.75l-2.9,7.2
	c-4.21-1.17-8.56-2.02-13.01-2.5v-7.78H552v7.78c-4.98,0.54-9.84,1.54-14.51,2.94l-3.04-7.14l-16.62,7.06l3.05,7.16
	c-3.87,2.18-7.54,4.66-10.98,7.42l-5.5-5.51l-12.77,12.77l5.51,5.51c-3.09,3.84-5.83,7.97-8.19,12.34l-7.2-2.9L475,455.4l7.2,2.91
	c-1.17,4.21-2.02,8.55-2.51,13.01h-7.78v18.05h7.78c0.55,4.99,1.55,9.84,2.95,14.52l-7.15,3.04l7.07,16.61l7.15-3.04
	c2.18,3.86,4.67,7.53,7.43,10.97l-5.51,5.51l12.77,12.76l5.5-5.5c3.85,3.08,7.98,5.83,12.35,8.18l-2.91,7.21l16.75,6.75l2.9-7.2
	c4.21,1.17,8.56,2.01,13.01,2.5v7.78h18.06v-7.78c4.99-0.54,9.84-1.54,14.52-2.94l3.04,7.14l16.61-7.07l-3.04-7.15
	c3.86-2.18,7.53-4.66,10.97-7.42l5.5,5.5l12.77-12.76l-5.5-5.51c3.08-3.84,5.82-7.97,8.18-12.34l7.2,2.9l6.75-16.75l-7.2-2.9
	c1.18-4.21,2.02-8.55,2.51-13.01H650.15z M561.61,537.72c-31.68,0-57.37-25.69-57.37-57.38c0-31.68,25.69-57.37,57.37-57.37
	c31.69,0,57.38,25.69,57.38,57.37C618.99,512.03,593.3,537.72,561.61,537.72z"/>
<path fill="#DD2C00" d="M561.03,433.46c-25.89,0-46.89,20.99-46.89,46.88c0,25.9,21,46.89,46.89,46.89
	c25.9,0,46.89-20.99,46.89-46.89C607.92,454.45,586.93,433.46,561.03,433.46z M561.03,514.33c-18.77,0-33.98-15.22-33.98-33.99
	c0-18.76,15.21-33.98,33.98-33.98c18.77,0,33.99,15.22,33.99,33.98C595.02,499.11,579.8,514.33,561.03,514.33z"/>
<path fill="#DD2C00" d="M561.03,450.67c-16.39,0-29.67,13.28-29.67,29.67c0,16.39,13.28,29.68,29.67,29.68
	c16.39,0,29.68-13.29,29.68-29.68C590.71,463.95,577.42,450.67,561.03,450.67z M561.03,500.24c-10.98,0-19.89-8.91-19.89-19.9
	c0-10.98,8.91-19.89,19.89-19.89c10.99,0,19.9,8.91,19.9,19.89C580.93,491.33,572.02,500.24,561.03,500.24z"/>
<line fill="none" x1="124.457" y1="461.495" x2="180.364" y2="536.976"/>
<path opacity="0" fill="#FF5722" d="M354.888,251.618c-9.681,0-92.292,83.688-92.292,83.688h92.292h21.685v-83.688
	C376.573,251.618,366.381,251.618,354.888,251.618z"/>
<rect x="394.094" y="251.618" opacity="0" fill="#FF5722" width="64.717" height="83.688"/>
<path fill="#DD2C00" d="M338.88,489.37v-18.05h-7.78c-0.54-4.99-1.54-9.84-2.94-14.52l7.14-3.04l-7.07-16.62l-7.15,3.05
	c-2.18-3.87-4.66-7.53-7.42-10.97l5.5-5.51l-12.76-12.77l-5.51,5.51c-3.84-3.08-7.97-5.83-12.34-8.18l2.9-7.21l-16.75-6.75l-2.9,7.2
	c-4.21-1.17-8.55-2.02-13.01-2.5v-7.78h-18.05v7.78c-4.99,0.54-9.84,1.54-14.52,2.94l-3.04-7.14l-16.62,7.06l3.05,7.16
	c-3.87,2.18-7.53,4.66-10.97,7.42l-5.51-5.51l-12.77,12.77l5.51,5.51c-3.08,3.84-5.83,7.97-8.18,12.34l-7.21-2.9l-6.75,16.74
	l7.2,2.91c-1.17,4.21-2.02,8.55-2.5,13.01h-7.78v18.05h7.78c0.54,4.99,1.54,9.84,2.94,14.52l-4.82,2.05l-2.32,0.99l7.06,16.61
	l7.16-3.04c2.18,3.86,4.66,7.53,7.42,10.97l-3.12,3.12l-2.39,2.39l12.77,12.76h0.01l5.5-5.5c3.84,3.08,7.97,5.83,12.34,8.18
	l-2.9,7.21l16.74,6.75l2.91-7.2c4.21,1.17,8.55,2.01,13.01,2.5v7.78h18.05v-7.78c4.99-0.54,9.84-1.54,14.52-2.94l3.04,7.14
	l16.61-7.07l-3.04-7.15c3.86-2.18,7.53-4.66,10.97-7.42l5.51,5.5l12.76-12.76l-5.5-5.51c3.08-3.84,5.83-7.97,8.18-12.34l7.21,2.9
	l6.75-16.75l-7.2-2.9c1.17-4.21,2.01-8.55,2.5-13.01H338.88z M250.35,537.72c-31.69,0-57.38-25.69-57.38-57.38
	c0-31.68,25.69-57.37,57.38-57.37c31.68,0,57.37,25.69,57.37,57.37C307.72,512.03,282.03,537.72,250.35,537.72z"/>
<path fill="#DD2C00" d="M682.06,341.78c-0.01-0.01-0.02-0.02-0.03-0.03c-0.39-0.47-0.84-0.92-1.35-1.34
	c-0.02-0.02-0.04-0.03-0.06-0.05c-2.43-1.97-6.11-3.22-10.23-3.22h-193.4l-0.02-1.83l-1.14-104.77c0,0-108.11,0-124.49,0
	c-9.57,0-104.82,90.68-119.56,104.77c-1.24,1.19-1.91,1.83-1.91,1.83H137.7c-7.32,0-13.24,3.95-13.24,8.82v82.56h-8.09v22.15h8.09
	v10.82c0,0.69,0.12,1.36,0.35,2.01c0.16,0.47,0.38,0.92,0.65,1.35c0.67,1.09,1.65,2.06,2.88,2.88c0.41,0.27,0.84,0.52,1.3,0.76
	c2.23,1.14,5.02,1.82,8.06,1.82h4.52c5.07-54.95,51.27-97.99,107.54-97.99c56.28,0,102.48,43.04,107.55,97.99h96.18
	c5.07-54.95,51.27-97.99,107.54-97.99c56.28,0,102.48,43.04,107.54,97.99h1.82c7.31,0,13.24-3.95,13.24-8.82V345.96
	C683.63,344.45,683.06,343.03,682.06,341.78z M376.25,335.45H261.82c0,0,0.05-0.05,0.13-0.14c3.72-3.74,83.04-83.69,92.53-83.69
	h0.41c11.36,0,21.36,0,21.36,0V335.45z M458.81,335.45h-64.97v-83.83h64.97V335.45z"/>
</svg>
